<?xml version="1.0" standalone="no"?>
<!DOCTYPE svg PUBLIC "-//W3C//DTD SVG 20010904//EN"
 "http://www.w3.org/TR/2001/REC-SVG-20010904/DTD/svg10.dtd">
<svg version="1.0" xmlns="http://www.w3.org/2000/svg"
 width="512.000000pt" height="512.000000pt" viewBox="0 0 512.000000 512.000000"
 preserveAspectRatio="xMidYMid meet">
<metadata>
Created by potrace 1.14, written by Peter Selinger 2001-2017
</metadata>
<g transform="translate(0.000000,512.000000) scale(0.100000,-0.100000)"
fill="#000000" stroke="none">
<path d="M2308 5115 c-3 -3 -91 -15 -144 -20 -17 -1 -40 -5 -51 -9 -11 -4 -36
-9 -54 -11 -44 -6 -55 -9 -169 -40 -52 -15 -102 -28 -110 -30 -8 -2 -16 -4
-17 -5 -2 -2 -6 -3 -10 -5 -5 -1 -16 -5 -25 -9 -9 -4 -22 -9 -30 -10 -33 -7
-160 -62 -278 -121 -123 -61 -170 -87 -227 -126 -23 -16 -44 -29 -48 -29 -3 0
-11 -5 -18 -10 -7 -6 -61 -47 -122 -92 -126 -94 -360 -324 -457 -448 -64 -84
-175 -245 -212 -311 -35 -62 -145 -287 -150 -309 -2 -7 -45 -122 -53 -140 -3
-8 -7 -17 -7 -20 -1 -3 -5 -11 -9 -17 -5 -7 -6 -13 -2 -13 3 0 -1 -16 -9 -35
-8 -19 -12 -35 -9 -35 3 0 0 -7 -7 -15 -7 -8 -10 -15 -7 -15 3 0 1 -15 -4 -32
-5 -18 -12 -49 -15 -68 -3 -19 -8 -38 -11 -42 -5 -10 -11 -41 -19 -98 -3 -25
-7 -52 -10 -60 -17 -62 -25 -575 -11 -685 6 -45 18 -120 21 -138 7 -33 17 -85
20 -107 3 -14 5 -25 7 -25 1 0 3 -9 5 -20 6 -41 54 -202 78 -263 13 -34 26
-66 27 -70 11 -43 132 -298 170 -357 10 -16 22 -37 26 -45 4 -8 27 -44 52 -80
24 -36 55 -80 67 -97 131 -192 392 -446 626 -609 112 -78 325 -198 408 -229
19 -7 53 -21 75 -31 22 -10 42 -18 45 -19 3 -1 13 -5 23 -8 9 -4 25 -10 35
-14 9 -3 20 -7 25 -8 4 -2 9 -4 12 -5 3 -1 10 -4 15 -5 6 -1 11 -3 13 -5 1 -1
9 -3 17 -5 8 -1 42 -11 75 -21 33 -10 62 -18 65 -19 10 -2 85 -18 100 -22 8
-2 26 -5 40 -8 14 -2 39 -7 55 -10 17 -4 39 -8 50 -10 11 -1 47 -6 80 -11 66
-10 557 -11 620 -1 22 3 58 8 80 11 22 3 51 8 65 11 14 3 40 8 59 11 19 3 45
10 58 15 13 5 23 6 23 4 0 -2 11 0 26 5 14 6 38 12 55 15 37 7 172 51 279 92
8 4 17 7 20 8 22 6 228 107 292 143 83 47 195 119 216 140 7 6 17 12 21 12 4
0 16 8 27 18 10 9 37 30 59 47 63 47 102 82 220 200 141 141 181 187 279 324
77 107 121 176 142 221 9 19 19 37 23 40 22 17 141 294 192 445 28 84 24 71
34 123 4 23 12 45 16 48 5 3 7 9 4 14 -3 5 -1 19 4 33 5 14 12 45 16 68 3 24
8 51 10 59 4 16 13 69 22 135 9 60 8 552 0 610 -5 28 -10 61 -12 75 -2 14 -6
41 -10 60 -3 19 -8 46 -10 60 -3 14 -6 32 -8 40 -2 8 -8 33 -12 55 -11 48 -10
46 -17 65 -5 13 -69 216 -73 230 -1 3 -6 16 -12 30 -6 14 -23 54 -38 90 -37
91 -84 184 -127 257 -21 35 -38 67 -38 73 0 5 -4 10 -10 10 -5 0 -10 4 -10 10
0 8 -78 123 -132 195 -4 6 -47 57 -96 115 -102 120 -203 219 -343 335 -45 38
-199 145 -208 145 -5 0 -11 4 -13 8 -6 15 -280 167 -318 176 -3 1 -21 9 -40
17 -66 30 -95 42 -105 45 -5 1 -23 8 -40 15 -16 7 -33 13 -37 14 -5 2 -9 3
-10 5 -2 1 -10 3 -18 5 -8 2 -64 18 -125 35 -97 27 -240 57 -360 76 -40 7
-570 15 -577 9z m447 -289 c33 -2 80 -7 105 -11 25 -4 54 -8 65 -10 11 -1 36
-6 55 -10 19 -4 44 -8 55 -10 59 -11 122 -26 135 -32 8 -3 20 -7 27 -9 34 -7
179 -58 188 -65 5 -5 15 -9 23 -9 18 0 266 -120 270 -131 2 -5 9 -9 16 -9 22
0 264 -169 349 -244 81 -71 172 -163 263 -267 33 -38 141 -185 187 -257 29
-44 157 -286 159 -299 1 -8 11 -34 29 -78 28 -68 37 -95 32 -95 -3 0 0 -7 7
-15 7 -8 9 -15 6 -15 -4 0 -1 -10 5 -22 10 -19 41 -132 54 -198 3 -14 7 -36
10 -50 6 -26 11 -61 20 -120 3 -19 7 -58 8 -85 2 -28 5 -55 8 -60 6 -11 2
-294 -4 -370 -3 -27 -8 -72 -12 -100 -15 -111 -18 -125 -49 -255 -3 -12 -25
-89 -31 -110 -1 -3 -5 -18 -10 -35 -4 -16 -12 -36 -18 -42 -5 -7 -6 -13 -2
-13 4 0 2 -7 -5 -15 -7 -8 -9 -15 -6 -15 4 0 1 -12 -8 -28 -8 -15 -24 -52 -36
-82 -30 -74 -126 -258 -156 -297 -13 -17 -24 -35 -24 -39 0 -7 -77 -116 -106
-151 -11 -12 -28 -33 -38 -47 -77 -106 -296 -314 -424 -404 -137 -96 -205
-136 -342 -203 -131 -64 -190 -90 -190 -82 0 3 -6 1 -12 -4 -12 -10 -133 -52
-161 -57 -7 -1 -28 -7 -47 -14 -19 -6 -46 -13 -60 -16 -14 -2 -36 -7 -50 -10
-14 -3 -37 -8 -52 -11 -16 -3 -38 -7 -50 -9 -172 -33 -492 -38 -678 -11 -19 3
-51 7 -70 10 -34 5 -56 9 -102 20 -13 4 -37 8 -55 11 -17 2 -44 9 -60 15 -15
6 -39 13 -53 15 -14 3 -32 7 -40 11 -8 3 -18 7 -22 8 -5 2 -10 4 -13 5 -3 1
-9 4 -15 5 -5 1 -11 3 -12 5 -2 1 -10 3 -18 5 -54 11 -282 118 -415 194 -34
20 -135 87 -170 114 -140 105 -243 199 -354 323 -57 63 -204 257 -222 292 -7
15 -19 34 -26 42 -19 24 -128 238 -158 310 -35 88 -85 240 -99 305 -2 6 -8 28
-14 50 -11 40 -17 74 -28 150 -3 22 -7 51 -10 65 -24 136 -23 450 1 608 3 17
7 44 9 60 10 70 18 111 32 162 8 30 17 62 19 70 2 8 4 15 5 15 2 0 5 13 14 51
19 87 147 381 209 479 148 238 288 409 461 563 35 32 191 152 232 180 104 69
281 163 424 225 36 16 222 76 253 82 9 2 21 6 25 9 4 2 27 7 52 11 25 4 48 9
52 11 4 3 20 7 35 9 33 4 98 15 133 21 14 2 63 6 110 9 46 3 85 7 86 8 4 4
231 -1 299 -7z"/>
<path d="M2483 4345 c-25 -16 -46 -37 -53 -57 -15 -40 -22 -1711 -7 -1768 11
-44 52 -85 97 -97 20 -5 332 -8 705 -8 611 1 673 3 702 18 115 61 98 232 -27
264 -19 5 -296 9 -615 8 l-580 0 -1 775 c0 878 4 830 -78 870 -56 26 -92 25
-143 -5z"/>
</g>
</svg>
